<mxfile host="65bd71144e">
    <diagram id="xS9Ljah16oaqcT3a7scy" name="Page-1">
        <mxGraphModel dx="832" dy="475" grid="1" gridSize="10" guides="1" tooltips="1" connect="1" arrows="1" fold="1" page="1" pageScale="1" pageWidth="850" pageHeight="1100" math="0" shadow="0">
            <root>
                <mxCell id="0"/>
                <mxCell id="1" parent="0"/>
                <mxCell id="2" value="&lt;h1 style=&quot;margin-top: 0px;&quot;&gt;snake_case&lt;/h1&gt;&lt;p&gt;All lowercase letters with words separated by underscores.&lt;/p&gt;&lt;p&gt;get_user_data(){....}&lt;/p&gt;" style="text;html=1;whiteSpace=wrap;overflow=hidden;rounded=0;verticalAlign=middle;align=center;labelBorderColor=default;labelBackgroundColor=#E1D7E3;" vertex="1" parent="1">
                    <mxGeometry x="200" y="280" width="180" height="120" as="geometry"/>
                </mxCell>
                <mxCell id="3" value="&lt;h1 style=&quot;margin-top: 0px;&quot;&gt;camelCase&lt;/h1&gt;&lt;p&gt;First word is lowercase, subsequent words start with a capital letter.&lt;/p&gt;&lt;p&gt;&amp;nbsp;let getUserData = {....}&lt;/p&gt;" style="text;html=1;whiteSpace=wrap;overflow=hidden;rounded=0;movable=1;resizable=1;rotatable=1;deletable=1;editable=1;locked=0;connectable=1;strokeColor=none;fillColor=none;strokeWidth=3;gradientColor=none;align=center;verticalAlign=middle;labelBorderColor=default;labelBackgroundColor=#E1D7E3;" vertex="1" parent="1">
                    <mxGeometry x="30" y="115" width="180" height="120" as="geometry"/>
                </mxCell>
                <mxCell id="4" value="Types of cases in Programming" style="rounded=0;whiteSpace=wrap;html=1;" vertex="1" parent="1">
                    <mxGeometry x="260" y="20" width="190" height="30" as="geometry"/>
                </mxCell>
                <mxCell id="5" value="&lt;h1 style=&quot;margin-top: 0px;&quot;&gt;PascalCase&lt;/h1&gt;&lt;p&gt; Every word starts with a capital letter (including the first one).&lt;/p&gt;&lt;p&gt;class UserProfile { ... }&lt;/p&gt;&lt;div&gt;&lt;br&gt;&lt;/div&gt;" style="text;html=1;whiteSpace=wrap;overflow=hidden;rounded=0;align=center;verticalAlign=middle;labelBorderColor=default;labelBackgroundColor=#E1D7E3;" vertex="1" parent="1">
                    <mxGeometry x="580" y="120" width="180" height="120" as="geometry"/>
                </mxCell>
                <mxCell id="6" value="&lt;h1 style=&quot;margin-top: 0px;&quot;&gt;kebab-case&lt;/h1&gt;&lt;p&gt;All lowercase letters with words separated by hyphens.&lt;/p&gt;&lt;p&gt;&amp;nbsp;user-profile&lt;/p&gt;" style="text;html=1;whiteSpace=wrap;overflow=hidden;rounded=0;verticalAlign=middle;align=center;labelBorderColor=default;textShadow=0;labelBackgroundColor=#E1D7E3;" vertex="1" parent="1">
                    <mxGeometry x="440" y="280" width="180" height="120" as="geometry"/>
                </mxCell>
                <mxCell id="11" value="" style="endArrow=classic;html=1;entryX=0.994;entryY=0.583;entryDx=0;entryDy=0;entryPerimeter=0;exitX=0.5;exitY=1;exitDx=0;exitDy=0;" edge="1" parent="1" source="4" target="3">
                    <mxGeometry width="50" height="50" relative="1" as="geometry">
                        <mxPoint x="360" y="60" as="sourcePoint"/>
                        <mxPoint x="440" y="180" as="targetPoint"/>
                    </mxGeometry>
                </mxCell>
                <mxCell id="12" value="" style="endArrow=classic;html=1;exitX=0.5;exitY=1;exitDx=0;exitDy=0;entryX=0.55;entryY=0.033;entryDx=0;entryDy=0;entryPerimeter=0;" edge="1" parent="1" source="4" target="2">
                    <mxGeometry width="50" height="50" relative="1" as="geometry">
                        <mxPoint x="350" y="60" as="sourcePoint"/>
                        <mxPoint x="440" y="180" as="targetPoint"/>
                    </mxGeometry>
                </mxCell>
                <mxCell id="13" value="" style="endArrow=classic;html=1;exitX=0.5;exitY=1;exitDx=0;exitDy=0;entryX=0.433;entryY=0.017;entryDx=0;entryDy=0;entryPerimeter=0;" edge="1" parent="1" source="4" target="6">
                    <mxGeometry width="50" height="50" relative="1" as="geometry">
                        <mxPoint x="390" y="230" as="sourcePoint"/>
                        <mxPoint x="440" y="180" as="targetPoint"/>
                    </mxGeometry>
                </mxCell>
                <mxCell id="14" value="" style="endArrow=classic;html=1;entryX=0;entryY=0.583;entryDx=0;entryDy=0;entryPerimeter=0;exitX=0.5;exitY=1;exitDx=0;exitDy=0;" edge="1" parent="1" source="4" target="5">
                    <mxGeometry width="50" height="50" relative="1" as="geometry">
                        <mxPoint x="390" y="230" as="sourcePoint"/>
                        <mxPoint x="440" y="180" as="targetPoint"/>
                    </mxGeometry>
                </mxCell>
            </root>
        </mxGraphModel>
    </diagram>
</mxfile>